<?xml version="1.0" encoding="utf-8"?>
<!-- Generator: Adobe Illustrator 23.0.1, SVG Export Plug-In . SVG Version: 6.00 Build 0)  -->
<svg version="1.1" id="Layer_1" xmlns="http://www.w3.org/2000/svg" xmlns:xlink="http://www.w3.org/1999/xlink" x="0px" y="0px"
	 viewBox="0 0 1920 1080" style="enable-background:new 0 0 1920 1080;" xml:space="preserve">
<style type="text/css">
	.st0{fill:url(#SVGID_1_);}
	.st1{fill:url(#SVGID_2_);}
	.st2{fill:url(#SVGID_3_);}
	.st3{fill:url(#SVGID_4_);}
</style>
<linearGradient id="SVGID_1_" gradientUnits="userSpaceOnUse" x1="998.5332" y1="471.2236" x2="1176.4233" y2="378.043">
	<stop  offset="0" style="stop-color:#FFFFFF"/>
	<stop  offset="1" style="stop-color:#000000"/>
</linearGradient>
<polygon class="st0" points="475.14,729.38 692.71,729.38 805.59,615.47 1074.07,615.44 983.63,523.48 866.21,523.48 866.21,501.27 
	1005.94,501.27 868,355.81 "/>
<linearGradient id="SVGID_2_" gradientUnits="userSpaceOnUse" x1="1332.6006" y1="431.0089" x2="1442.9813" y2="373.1905">
	<stop  offset="0" style="stop-color:#FFFFFF"/>
	<stop  offset="1" style="stop-color:#000000"/>
</linearGradient>
<polygon class="st1" points="882.75,352.39 1013.26,490.22 1075.84,490.22 1075.84,508.79 983.96,508.79 1068.52,593.35 
	1090.56,593.35 1215.72,729.38 1362.92,729.38 1153.98,515.07 1291.42,352.39 "/>
<linearGradient id="SVGID_3_" gradientUnits="userSpaceOnUse" x1="1133.6381" y1="611.0602" x2="1263.8368" y2="542.8609">
	<stop  offset="0" style="stop-color:#FFFFFF"/>
	<stop  offset="1" style="stop-color:#000000"/>
</linearGradient>
<polygon class="st2" points="713.57,729.38 1195.62,729.38 1099.9,628.25 812.95,628.25 "/>
<linearGradient id="SVGID_4_" gradientUnits="userSpaceOnUse" x1="1456.6345" y1="348.4119" x2="1537.6189" y2="305.9916">
	<stop  offset="0" style="stop-color:#FFFFFF"/>
	<stop  offset="1" style="stop-color:#000000"/>
</linearGradient>
<polygon class="st3" points="1215.72,460.9 1383.1,460.9 1458.72,352.39 1307.82,352.39 "/>
</svg>
